<svg xmlns="http://www.w3.org/2000/svg" viewBox="0 0 203.72 34.1"><defs><style>.cls-1{fill:#fff;}</style></defs><g id="Layer_2" data-name="Layer 2"><g id="Layer_1-2" data-name="Layer 1"><path class="cls-1" d="M28,27.38H27.4L26.93,7.23a12.33,12.33,0,0,0-.27-2.81A2.29,2.29,0,0,0,25.73,3a4.91,4.91,0,0,0-2.08-.64V1.21h8.56v1.1a5,5,0,0,0-2,.68,2.27,2.27,0,0,0-.88,1.42,12.73,12.73,0,0,0-.26,2.78l-.34,26.46H21.94L4.13,4.36h.7l.45,23.27a12.17,12.17,0,0,0,.27,2.8,2.27,2.27,0,0,0,.93,1.44,5.14,5.14,0,0,0,2.06.65v1.13H0v-1.1a5.16,5.16,0,0,0,2-.68,2.23,2.23,0,0,0,.88-1.42,14.35,14.35,0,0,0,.25-2.78L3.39,6A5.67,5.67,0,0,0,3.14,4.1,2,2,0,0,0,2.23,3,5.72,5.72,0,0,0,.4,2.31V1.21H12.06Z"/><path class="cls-1" d="M43.71,30.08a2.42,2.42,0,0,0,.47,1.69,4.29,4.29,0,0,0,2.11.78v1.1H33.74v-1.1a4.29,4.29,0,0,0,2.11-.78,2.42,2.42,0,0,0,.47-1.69V15.83a3,3,0,0,0-.25-1.48,2.16,2.16,0,0,0-1.19-.72l-1.14-.36v-1l10-1.21Zm-6.78-23a3.28,3.28,0,0,1-1.1-2.53A3.29,3.29,0,0,1,36.93,2a4.08,4.08,0,0,1,5.35,0,3.31,3.31,0,0,1,1.09,2.56,3.31,3.31,0,0,1-1.09,2.53,4,4,0,0,1-5.35,0Z"/><path class="cls-1" d="M58.13,15.21A6.83,6.83,0,0,1,61,12.08a9.41,9.41,0,0,1,4.86-1.19,8.32,8.32,0,0,1,5.53,1.77q2.12,1.75,2.11,5.4v12a3.72,3.72,0,0,0,.19,1.28,1.43,1.43,0,0,0,.76.73,7.59,7.59,0,0,0,1.66.46v1.1H63.88v-1.1a3.57,3.57,0,0,0,1.84-.71,2.45,2.45,0,0,0,.4-1.63V18.49a4.82,4.82,0,0,0-1.05-3.4,3.91,3.91,0,0,0-3-1.12,4.82,4.82,0,0,0-2.4.58,4,4,0,0,0-1.53,1.53V30.21a2.45,2.45,0,0,0,.4,1.63,3.54,3.54,0,0,0,1.85.71v1.1H48.2v-1.1a4.25,4.25,0,0,0,2.11-.78,2.37,2.37,0,0,0,.47-1.69V15.83a3.19,3.19,0,0,0-.24-1.48,2.2,2.2,0,0,0-1.19-.72l-1.15-.36v-1L58.13,11Z"/><path class="cls-1" d="M79.94,16.49A10.34,10.34,0,0,1,84,12.38a12.17,12.17,0,0,1,6.12-1.49,11.2,11.2,0,0,1,5.34,1.19A8.42,8.42,0,0,1,98.9,15.4a9.88,9.88,0,0,1,1.19,4.9,7.94,7.94,0,0,1,0,.85c0,.27,0,.51-.08.7H84V20.6l10-.12-.42.41a7.77,7.77,0,0,0,0-.85c0-.3,0-.67,0-1.11a11.3,11.3,0,0,0-.85-4.78,2.75,2.75,0,0,0-2.61-1.77,3.47,3.47,0,0,0-3.15,2,11.36,11.36,0,0,0-1.12,5.58,14.8,14.8,0,0,0,1.1,6,8.56,8.56,0,0,0,3,3.78,8.24,8.24,0,0,0,7.47.74A6.28,6.28,0,0,0,99.66,29l0,1.1A8.1,8.1,0,0,1,96,33a13.83,13.83,0,0,1-5.57,1.07,13,13,0,0,1-6.06-1.41,10.74,10.74,0,0,1-4.32-4,11.55,11.55,0,0,1-1.59-6.16A12.24,12.24,0,0,1,79.94,16.49Z"/><path class="cls-1" d="M104.94,13.39H102.4v-1l9-6.6h.85v5.84l5.39-.34v2.07l-5.39-.34V27.11a4.58,4.58,0,0,0,.89,3.17,3,3,0,0,0,2.3.94,3.73,3.73,0,0,0,1.39-.25,3.14,3.14,0,0,0,1.08-.63v1.11a5.82,5.82,0,0,1-2.38,1.84,8.85,8.85,0,0,1-3.88.81,8,8,0,0,1-3.44-.73,5.46,5.46,0,0,1-2.41-2.28,8,8,0,0,1-.89-4Z"/><path class="cls-1" d="M121.51,32.6a4.85,4.85,0,0,1-1.82-3.94,5.17,5.17,0,0,1,.94-3,7.56,7.56,0,0,1,3-2.34,23.59,23.59,0,0,1,5.51-1.67l6-1.24v1.26l-3.15.7a7.33,7.33,0,0,0-3.91,1.93A4.7,4.7,0,0,0,127,27.51a3.85,3.85,0,0,0,.94,2.81,3.1,3.1,0,0,0,2.32,1,4.14,4.14,0,0,0,2-.48,3.14,3.14,0,0,0,1.31-1.41v-11c0-2.06-.47-3.53-1.42-4.4a5.76,5.76,0,0,0-4-1.3,8.36,8.36,0,0,0-3,.51,6.14,6.14,0,0,0-2.22,1.41,3.52,3.52,0,0,0-1,2.05h-.81a3.5,3.5,0,0,1,.91-2.37,2.71,2.71,0,0,1,2.07-1,3.06,3.06,0,0,1,2.23.91,3,3,0,0,1,.92,2.23,3,3,0,0,1-1,2.27,3.49,3.49,0,0,1-4.69,0,2.91,2.91,0,0,1-1-2.23,4,4,0,0,1,1.23-2.82,8.46,8.46,0,0,1,3.47-2,16.59,16.59,0,0,1,5.34-.77,13.12,13.12,0,0,1,7.44,1.83,6.5,6.5,0,0,1,2.69,5.77V29.24a2.83,2.83,0,0,0,.62,2,2.07,2.07,0,0,0,1.54.62,2.86,2.86,0,0,0,.88-.11v1a6.06,6.06,0,0,1-1.9.83,10.32,10.32,0,0,1-2.69.33,7.65,7.65,0,0,1-2.52-.41,5.14,5.14,0,0,1-2-1.24,3.63,3.63,0,0,1-1-2A5.32,5.32,0,0,1,131,33a10.29,10.29,0,0,1-4.79,1.06A7.2,7.2,0,0,1,121.51,32.6Z"/><path class="cls-1" d="M155.14,30.08a2.37,2.37,0,0,0,.47,1.69,4.25,4.25,0,0,0,2.11.78v1.1H145.17v-1.1a4.29,4.29,0,0,0,2.11-.78,2.42,2.42,0,0,0,.47-1.69V4.83a3,3,0,0,0-.25-1.49,2.16,2.16,0,0,0-1.19-.71l-1.14-.38v-1l10-1.21Z"/><path class="cls-1" d="M161.67,16.49a10.47,10.47,0,0,1,4.08-4.11,12.22,12.22,0,0,1,6.12-1.49,11.27,11.27,0,0,1,5.35,1.19,8.33,8.33,0,0,1,3.41,3.32,9.88,9.88,0,0,1,1.19,4.9c0,.29,0,.57,0,.85s0,.51-.08.7h-16V20.6l10-.12-.43.41c0-.27.05-.56.06-.85s0-.67,0-1.11a11.32,11.32,0,0,0-.84-4.78,2.76,2.76,0,0,0-2.62-1.77,3.46,3.46,0,0,0-3.14,2,11.35,11.35,0,0,0-1.13,5.58,14.8,14.8,0,0,0,1.1,6,8.65,8.65,0,0,0,3,3.78,8.24,8.24,0,0,0,7.47.74A6.33,6.33,0,0,0,181.39,29l0,1.1A8.1,8.1,0,0,1,177.76,33a13.87,13.87,0,0,1-5.57,1.07,13,13,0,0,1-6.07-1.41,10.72,10.72,0,0,1-4.31-4,11.56,11.56,0,0,1-1.6-6.16A12.24,12.24,0,0,1,161.67,16.49Z"/><path class="cls-1" d="M186.25,14.24a7.77,7.77,0,0,1,3.57-2.47,15.85,15.85,0,0,1,5.5-.85,21,21,0,0,1,4.28.39,10,10,0,0,1,2.77.91l.09,5.91h-1.05a8.33,8.33,0,0,0-2.2-4.25,5.32,5.32,0,0,0-3.8-1.5,4.66,4.66,0,0,0-3,.84,2.67,2.67,0,0,0-1,2.17,2.47,2.47,0,0,0,1,2.05,9.15,9.15,0,0,0,2.86,1.4l1.86.59a11.52,11.52,0,0,1,4.95,2.8,6.33,6.33,0,0,1,1.68,4.57,5.94,5.94,0,0,1-1.37,3.94,8.6,8.6,0,0,1-3.73,2.48,15.51,15.51,0,0,1-5.32.85,21.22,21.22,0,0,1-4.64-.5,12.58,12.58,0,0,1-3.51-1.27l-.23-6.38H186a10.27,10.27,0,0,0,1.52,3.52A7.59,7.59,0,0,0,190,31.77a6.33,6.33,0,0,0,3.12.82,4.74,4.74,0,0,0,3.06-.88,2.74,2.74,0,0,0,1.1-2.24,2.88,2.88,0,0,0-.9-2.18,7.48,7.48,0,0,0-2.83-1.48l-1.86-.59a13.19,13.19,0,0,1-4.92-2.67A5.68,5.68,0,0,1,185,18.13,6.13,6.13,0,0,1,186.25,14.24Z"/></g></g></svg>