<svg xmlns="http://www.w3.org/2000/svg" viewBox="0 0 76.65 69.22"><defs><style>.cls-1{fill:#d2d5db;}.cls-2{fill:#e75625;}.cls-3{fill:none;stroke:#231f20;stroke-miterlimit:10;}.cls-4{fill:#e5e7eb;}.cls-5{fill:#f37123;}.cls-6{fill:#f9fbfc;}.cls-7{fill:#ef9822;}</style></defs><g id="Layer_2" data-name="Layer 2"><g id="Layer_1-2" data-name="Layer 1"><path class="cls-1" d="M33.76,31.24c-4.13.59-12.16-4.65-12.36-4.78-2.72-4.33-6.68-8.88-18.93-10.34A31.39,31.39,0,0,1,13.78,3.77C23.34-.48,37.13,2.12,42.45,14.56a22.72,22.72,0,0,0-9.14-5c4.23,6,7.36,11.91,6.51,17.42-4-3.46-7.69-7.23-11.73-8.16C29.26,19.82,34,28,33.76,31.24Z"/><path class="cls-2" d="M43.53,55.59c4.57-1.13,8.66-2.75,11.4-5.7-2,1.44-25.7,9.48-33-16.51,4.4,1.53,7.51,2.84,8.4,1.72-5.14-1.26-6.57-4.87-8.93-8.64.2.13,8.23,5.37,12.36,4.78C34,28,29.26,19.82,28.09,18.86c4,.93,7.69,4.7,11.73,8.16.85-5.51-2.28-11.41-6.51-17.42a22.72,22.72,0,0,1,9.14,5C37.13,2.12,23.34-.48,13.78,3.77,22.1-1.45,33.42-2.7,44.07,9.63c.44-1.63-1.06-3.82-3.59-7,17.5,7,12.46,38.45,35.73,32.75C76.21,35.38,69,57.74,43.53,55.59Z"/><path class="cls-3" d="M21.4,26.46h0"/><path class="cls-4" d="M34.13,42.37C30.3,44,21.18,41,21,41c-3.75-3.48-8.75-6.85-21-5.09A31.41,31.41,0,0,1,7.72,21c8.14-6.58,22.13-7.64,30.49,3A22.65,22.65,0,0,0,28.1,21.59c5.64,4.7,10.19,9.6,10.8,15.14-4.8-2.3-9.3-5-13.45-4.85C26.83,32.5,33.49,39.14,34.13,42.37Z"/><path class="cls-5" d="M49.88,63.36c4.12-2.28,7.65-4.89,9.53-8.46C57.9,56.8,37,70.71,23.26,47.5c4.65.34,8,.79,8.56-.51-5.29.1-7.6-3-10.86-6,.22.08,9.34,3.06,13.17,1.42-.64-3.23-7.3-9.87-8.68-10.49,4.15-.15,8.65,2.55,13.45,4.85-.61-5.54-5.16-10.44-10.8-15.14A22.65,22.65,0,0,1,38.21,24c-8.36-10.64-22.35-9.58-30.49-3C14.41,13.81,25,9.67,38.5,18.83c0-1.69-2-3.42-5.28-5.84,18.71,2.2,22,33.92,43,22.39C76.21,35.38,75,58.85,49.88,63.36Z"/><path class="cls-3" d="M21,41h0"/><path class="cls-6" d="M37.38,53c-3.28,2.56-12.86,2-13.09,2-4.53-2.39-10.23-4.36-21.57.51A31.43,31.43,0,0,1,6.34,39.22c6.15-8.46,19.4-13.1,30.22-5a22.62,22.62,0,0,0-10.39.28c6.67,3.09,12.33,6.63,14.35,11.83-5.23-1-10.28-2.42-14.24-1.2C27.77,45.38,35.92,50.07,37.38,53Z"/><path class="cls-7" d="M58,69.22c3.4-3.26,6.13-6.7,7-10.63-1,2.22-17.51,21-36.83,2.2,4.58-.87,7.93-1.3,8.13-2.71-5.07,1.47-8.11-.94-12-3,.23,0,9.81.53,13.09-2-1.46-3-9.61-7.65-11.1-7.89,4-1.22,9,.22,14.24,1.2-2-5.2-7.68-8.74-14.35-11.83a22.62,22.62,0,0,1,10.39-.28c-10.82-8.11-24.07-3.47-30.22,5,4.59-8.68,13.77-15.43,29.16-10.07-.43-1.63-2.83-2.78-6.6-4.27,18.63-2.71,30,27.07,47.31,10.5C76.21,35.38,81.15,58.35,58,69.22Z"/><path class="cls-3" d="M24.29,55.06h0"/></g></g></svg>