<svg xmlns="http://www.w3.org/2000/svg" viewBox="0 0 255.04 40.56"><defs><style>.cls-1{fill:#fff;}.cls-2{fill:#d2d5db;}.cls-3{fill:#e75625;}.cls-4{fill:none;stroke:#231f20;stroke-miterlimit:10;}.cls-5{fill:#e5e7eb;}.cls-6{fill:#f37123;}.cls-7{fill:#f9fbfc;}.cls-8{fill:#ef9822;}</style></defs><g id="Layer_2" data-name="Layer 2"><g id="Layer_3" data-name="Layer 3"><path class="cls-1" d="M79.3,33.85h-.58L78.25,13.7A13.6,13.6,0,0,0,78,10.89,2.37,2.37,0,0,0,77,9.44,5,5,0,0,0,75,8.8V7.68h8.55v1.1a5,5,0,0,0-2,.67,2.35,2.35,0,0,0-.89,1.43,14.09,14.09,0,0,0-.26,2.77l-.33,26.46H73.26L55.45,10.82h.69l.45,23.27a13.52,13.52,0,0,0,.27,2.81,2.32,2.32,0,0,0,.94,1.44,5.09,5.09,0,0,0,2.05.65v1.12H51.32V39a5.12,5.12,0,0,0,2-.67,2.27,2.27,0,0,0,.89-1.43,14.15,14.15,0,0,0,.25-2.77l.29-21.7a5.9,5.9,0,0,0-.25-1.87,2.15,2.15,0,0,0-.91-1.13,6,6,0,0,0-1.83-.66V7.68H63.38Z"/><path class="cls-1" d="M95,36.54a2.38,2.38,0,0,0,.48,1.7,4.13,4.13,0,0,0,2.11.77v1.1H85.05V39a4.17,4.17,0,0,0,2.11-.77,2.38,2.38,0,0,0,.47-1.7V22.3a3.16,3.16,0,0,0-.24-1.48,2.2,2.2,0,0,0-1.19-.72l-1.15-.36v-1l10-1.22Zm-6.77-23A3.27,3.27,0,0,1,87.14,11a3.3,3.3,0,0,1,1.11-2.56,4.06,4.06,0,0,1,5.34,0A3.32,3.32,0,0,1,94.69,11a3.3,3.3,0,0,1-1.1,2.52,4,4,0,0,1-5.34,0Z"/><path class="cls-1" d="M109.44,21.67a6.78,6.78,0,0,1,2.87-3.12,9.41,9.41,0,0,1,4.86-1.19,8.37,8.37,0,0,1,5.53,1.76,6.68,6.68,0,0,1,2.11,5.41v12a3.42,3.42,0,0,0,.19,1.28,1.38,1.38,0,0,0,.75.73,7.37,7.37,0,0,0,1.66.46v1.1H115.19V39A3.53,3.53,0,0,0,117,38.3a2.42,2.42,0,0,0,.4-1.62V25a4.81,4.81,0,0,0-1-3.39,3.89,3.89,0,0,0-3-1.12A4.69,4.69,0,0,0,111,21a3.88,3.88,0,0,0-1.53,1.53V36.68a2.49,2.49,0,0,0,.39,1.62,3.45,3.45,0,0,0,1.85.71v1.1H99.52V39a4.21,4.21,0,0,0,2.11-.77,2.43,2.43,0,0,0,.47-1.7V22.3a3,3,0,0,0-.25-1.48,2.16,2.16,0,0,0-1.19-.72l-1.14-.36v-1l9.92-1.22Z"/><path class="cls-1" d="M131.25,23a10.6,10.6,0,0,1,4.08-4.11,12.22,12.22,0,0,1,6.12-1.48,11.27,11.27,0,0,1,5.35,1.19,8.31,8.31,0,0,1,3.41,3.31,9.81,9.81,0,0,1,1.19,4.91q0,.43,0,.84c0,.28-.05.52-.08.71h-16V27.06l10-.11-.43.41c0-.27,0-.56.06-.86s0-.66,0-1.1a11.29,11.29,0,0,0-.84-4.78,2.76,2.76,0,0,0-2.62-1.78,3.47,3.47,0,0,0-3.14,2,11.35,11.35,0,0,0-1.13,5.58,14.8,14.8,0,0,0,1.1,6,8.71,8.71,0,0,0,3,3.78,8.33,8.33,0,0,0,7.47.74A6.47,6.47,0,0,0,151,35.49l0,1.1a8.23,8.23,0,0,1-3.66,2.91,13.87,13.87,0,0,1-5.57,1.06,13.08,13.08,0,0,1-6.07-1.4,10.79,10.79,0,0,1-4.31-4,11.57,11.57,0,0,1-1.6-6.17A12.27,12.27,0,0,1,131.25,23Z"/><path class="cls-1" d="M156.25,19.85h-2.53v-1l9-6.61h.86v5.84l5.39-.33v2.06l-5.39-.33V33.58a4.56,4.56,0,0,0,.88,3.16,3,3,0,0,0,2.31.95,3.77,3.77,0,0,0,1.39-.25,3.34,3.34,0,0,0,1.08-.63v1.1a5.88,5.88,0,0,1-2.38,1.84,8.9,8.9,0,0,1-3.89.81,7.78,7.78,0,0,1-3.43-.73,5.38,5.38,0,0,1-2.42-2.28,8,8,0,0,1-.89-4Z"/><path class="cls-1" d="M172.83,39.07A4.86,4.86,0,0,1,171,35.13a5.14,5.14,0,0,1,.93-3,7.63,7.63,0,0,1,3-2.34,23.37,23.37,0,0,1,5.52-1.67l6-1.24v1.26l-3.14.7a7.26,7.26,0,0,0-3.91,1.93A4.7,4.7,0,0,0,178.27,34a3.85,3.85,0,0,0,.94,2.81,3.12,3.12,0,0,0,2.31,1,4.16,4.16,0,0,0,2-.48,3.17,3.17,0,0,0,1.31-1.4v-11c0-2.07-.48-3.53-1.43-4.4a5.75,5.75,0,0,0-4-1.31,8.31,8.31,0,0,0-2.95.52,6.16,6.16,0,0,0-2.23,1.4,3.67,3.67,0,0,0-1,2.06h-.81a3.51,3.51,0,0,1,.91-2.37,2.74,2.74,0,0,1,2.08-1,3.06,3.06,0,0,1,2.22.91,3.18,3.18,0,0,1,0,4.51,3.3,3.3,0,0,1-2.36.92,3.37,3.37,0,0,1-2.34-.89,2.91,2.91,0,0,1-1-2.23,4,4,0,0,1,1.22-2.82,8.61,8.61,0,0,1,3.47-2,16.67,16.67,0,0,1,5.35-.76,13.06,13.06,0,0,1,7.43,1.83,6.46,6.46,0,0,1,2.7,5.76V35.71a2.76,2.76,0,0,0,.62,2,2.05,2.05,0,0,0,1.53.63,3.15,3.15,0,0,0,.88-.11v1a5.74,5.74,0,0,1-1.9.83,9.83,9.83,0,0,1-2.68.34A7.5,7.5,0,0,1,188,40a5.07,5.07,0,0,1-2-1.23,3.79,3.79,0,0,1-1-2.06,5.3,5.3,0,0,1-2.67,2.77,10.24,10.24,0,0,1-4.78,1.05A7.21,7.21,0,0,1,172.83,39.07Z"/><path class="cls-1" d="M206.45,36.54a2.43,2.43,0,0,0,.47,1.7A4.22,4.22,0,0,0,209,39v1.1H196.48V39a4.17,4.17,0,0,0,2.11-.77,2.38,2.38,0,0,0,.47-1.7V11.3a3.18,3.18,0,0,0-.24-1.5,2.26,2.26,0,0,0-1.19-.71l-1.15-.38v-1l10-1.21Z"/><path class="cls-1" d="M213,23a10.47,10.47,0,0,1,4.08-4.11,12.16,12.16,0,0,1,6.12-1.48,11.2,11.2,0,0,1,5.34,1.19A8.39,8.39,0,0,1,232,21.86a9.91,9.91,0,0,1,1.19,4.91,7.63,7.63,0,0,1,0,.84c0,.28,0,.52-.08.71H217V27.06L227,27l-.42.41a7.81,7.81,0,0,0,0-.86c0-.3,0-.66,0-1.1a11.27,11.27,0,0,0-.85-4.78,2.74,2.74,0,0,0-2.61-1.78,3.48,3.48,0,0,0-3.15,2,11.36,11.36,0,0,0-1.12,5.58,14.8,14.8,0,0,0,1.1,6,8.62,8.62,0,0,0,3,3.78,8.33,8.33,0,0,0,7.47.74,6.28,6.28,0,0,0,2.19-1.41l0,1.1a8.23,8.23,0,0,1-3.66,2.91,13.83,13.83,0,0,1-5.57,1.06,13.07,13.07,0,0,1-6.06-1.4,10.88,10.88,0,0,1-4.32-4A11.56,11.56,0,0,1,211.53,29,12.27,12.27,0,0,1,213,23Z"/><path class="cls-1" d="M237.56,20.71a7.82,7.82,0,0,1,3.57-2.47,15.9,15.9,0,0,1,5.51-.86,20.3,20.3,0,0,1,4.28.4,10.12,10.12,0,0,1,2.77.91l.09,5.9h-1.06a8.26,8.26,0,0,0-2.2-4.24,5.26,5.26,0,0,0-3.79-1.51,4.66,4.66,0,0,0-3,.84,2.67,2.67,0,0,0-1,2.17,2.5,2.5,0,0,0,1,2.06,9.69,9.69,0,0,0,2.87,1.4l1.86.59a11.47,11.47,0,0,1,4.94,2.79A6.37,6.37,0,0,1,255,33.26a5.93,5.93,0,0,1-1.37,3.94,8.58,8.58,0,0,1-3.73,2.49,15.56,15.56,0,0,1-5.33.85A20.53,20.53,0,0,1,240,40a12.68,12.68,0,0,1-3.52-1.26l-.22-6.38h1a10.34,10.34,0,0,0,1.53,3.51,7.53,7.53,0,0,0,2.54,2.34,6.44,6.44,0,0,0,3.12.82,4.73,4.73,0,0,0,3.05-.88,2.72,2.72,0,0,0,1.1-2.24,2.89,2.89,0,0,0-.89-2.18,7.55,7.55,0,0,0-2.83-1.49L243,31.69A13.35,13.35,0,0,1,238.12,29a5.73,5.73,0,0,1-1.82-4.43A6.1,6.1,0,0,1,237.56,20.71Z"/></g><g id="Layer_1-2" data-name="Layer 1"><path class="cls-2" d="M19.78,18.31c-2.41.34-7.12-2.73-7.24-2.8C11,13,8.63,10.3,1.45,9.45A18.4,18.4,0,0,1,8.07,2.21c5.61-2.49,13.69-1,16.81,6.32a13.25,13.25,0,0,0-5.36-2.9c2.48,3.52,4.31,7,3.82,10.2-2.37-2-4.51-4.23-6.88-4.78C17.15,11.61,19.91,16.38,19.78,18.31Z"/><path class="cls-3" d="M25.51,32.57c2.68-.66,5.07-1.6,6.68-3.34-1.15.85-15.06,5.56-19.34-9.67,2.58.9,4.4,1.66,4.92,1-3-.74-3.84-2.85-5.23-5.06.12.07,4.83,3.14,7.24,2.8.13-1.93-2.63-6.7-3.32-7.26,2.37.55,4.51,2.76,6.88,4.78.49-3.22-1.34-6.68-3.82-10.2a13.25,13.25,0,0,1,5.36,2.9C21.76,1.24,13.68-.28,8.07,2.21,13-.85,19.59-1.59,25.83,5.65c.25-1-.63-2.25-2.11-4.11C34,5.62,31,24.07,44.66,20.73,44.66,20.73,40.43,33.84,25.51,32.57Z"/><path class="cls-4" d="M12.54,15.51h0"/><path class="cls-5" d="M20,24.83c-2.24,1-7.59-.79-7.72-.83C10.08,22,7.16,20,0,21a18.32,18.32,0,0,1,4.53-8.7c4.76-3.86,13-4.47,17.86,1.76a13.3,13.3,0,0,0-5.92-1.42c3.3,2.76,6,5.63,6.33,8.87-2.82-1.34-5.45-2.93-7.89-2.84C15.72,19,19.62,22.94,20,24.83Z"/><path class="cls-6" d="M29.23,37.13c2.41-1.34,4.48-2.87,5.58-5-.88,1.11-13.1,9.27-21.18-4.34,2.73.2,4.68.47,5-.3-3.09.07-4.45-1.76-6.36-3.53.13,0,5.48,1.79,7.72.83-.38-1.89-4.28-5.79-5.09-6.15,2.44-.09,5.07,1.5,7.89,2.84-.36-3.24-3-6.11-6.33-8.87a13.3,13.3,0,0,1,5.92,1.42c-4.9-6.23-13.1-5.62-17.86-1.76,3.91-4.22,10.13-6.64,18-1.27,0-1-1.18-2-3.09-3.43,11,1.29,12.88,19.88,25.19,13.12C44.66,20.73,44,34.49,29.23,37.13Z"/><path class="cls-4" d="M12.28,24h0"/><path class="cls-7" d="M21.9,31.07c-1.92,1.51-7.53,1.21-7.67,1.2-2.65-1.41-6-2.56-12.64.29A18.47,18.47,0,0,1,3.71,23C7.32,18,15.08,15.31,21.43,20.06a13.31,13.31,0,0,0-6.09.16c3.9,1.81,7.22,3.89,8.4,6.93-3.06-.57-6-1.41-8.34-.7C16.27,26.59,21.05,29.34,21.9,31.07Z"/><path class="cls-8" d="M34,40.56c2-1.91,3.59-3.92,4.11-6.23-.57,1.3-10.26,12.34-21.58,1.29,2.68-.51,4.64-.76,4.76-1.58-3,.86-4.75-.55-7.06-1.77.14,0,5.75.31,7.67-1.2-.85-1.73-5.63-4.48-6.5-4.62,2.32-.71,5.28.13,8.34.7-1.18-3-4.5-5.12-8.4-6.93a13.31,13.31,0,0,1,6.09-.16C15.08,15.31,7.32,18,3.71,23c2.7-5.08,8.08-9,17.1-5.9-.26-.95-1.66-1.63-3.88-2.5C27.85,13,34.52,30.44,44.66,20.73,44.66,20.73,47.55,34.2,34,40.56Z"/><path class="cls-4" d="M14.23,32.27h0"/></g></g></svg>