<svg xmlns="http://www.w3.org/2000/svg" viewBox="0 0 546.94 138.65"><defs><style>.cls-1{fill:#f04f2f;}.cls-2{fill:#fcbd26;}.cls-3{fill:#e5e9eb;}.cls-4{fill:#bfc3c9;}.cls-5{fill:#f78f32;}.cls-6{fill:#ced0d5;}.cls-7{fill:#fff;}</style></defs><g id="Layer_2" data-name="Layer 2"><g id="Layer_4" data-name="Layer 4"><path class="cls-1" d="M67.21,77.64c5.46,6.48,11.66,9,18.28,9.17C76.21,82,70.09,69.66,65,56.82A76.32,76.32,0,0,1,48.66,39.69c1.94,8.1,3.2,15.5,8.38,19.47-5.49-.66-11.25-8.1-11.25-8.1-5,48,38.57,48,39.37,48-7.53,1.73-15.14,1.43-22.8.18,37.37,21.92,64-7.67,64-7.67C95.86,104.54,80.07,93.49,67.21,77.64Z"/><path class="cls-2" d="M126.39,91.61C81.76,97.24,84,58.28,84,58.28c4,12.6,14.38,19.89,14.38,19.89C85.3,61.83,92.84,40.24,79,22.87c.21.12,9,5.23,10.3,13.42,0,0,3.75-30.38-33.71-36.17C71.25-1,89.08,5.36,95.93,31.32c0,0,2.81-5.64-1.19-13.57,18.45,12.65,3.19,55.16,13.57,62.94a13.61,13.61,0,0,1,1-8.64S108.58,87.92,126.39,91.61Z"/><path class="cls-3" d="M89.34,36.29C88.09,28.1,79.25,23,79,22.87h0c-3.68-4.63-8.89-9-16.41-12.82,3.08-1.09,10,2.39,10,2.39C54.05-7.32,28.93,11.26,28.93,11.26,31.4,7,42.75,1,55.62.12h0C93.09,5.91,89.34,36.29,89.34,36.29Z"/><path class="cls-4" d="M65,56.82A76.32,76.32,0,0,1,48.66,39.69h0c-2.44-10.16-6-21.42-19.73-28.42,0,0,19.79-3.06,32.6,19.19A58.83,58.83,0,0,0,50,22.38C55.51,28.91,59.67,43.17,65,56.82Z"/><path class="cls-5" d="M126.39,91.61c-30.53,12.93-46.32,1.88-59.18-14,5.46,6.48,11.66,9,18.28,9.17C76.21,82,70.09,69.66,65,56.82c2.34-5.29,1.43-14.15,0-23.6,0,0,8.54,6.5,11.84,20.83,0,0,7.93-10.89,2.16-31.18,13.8,17.37,6.26,39,19.31,55.3,0,0-10.38-7.29-14.38-19.89C84,58.28,81.76,97.24,126.39,91.61Z"/><path class="cls-6" d="M65,56.82c-5.37-13.65-9.53-27.91-15-34.44a58.83,58.83,0,0,1,11.5,8.07C48.72,8.2,28.93,11.26,28.93,11.26S54.05-7.32,72.62,12.44c0,0-6.91-3.48-10-2.39C70.15,13.9,75.36,18.24,79,22.87h0c5.77,20.29-2.16,31.18-2.16,31.18C73.58,39.72,65,33.22,65,33.22,66.47,42.67,67.38,51.53,65,56.82Z"/><path class="cls-1" d="M66,98.73c7.34,4.22,14,4.46,20.31,2.37C75.94,99.72,66,90.25,56.85,79.91a76.07,76.07,0,0,1-21.26-10.5c4.6,7,8.31,13.47,14.54,15.44-5.39,1.25-13.35-3.77-13.35-3.77,11.69,46.77,52.68,32,53.44,31.67-6.49,4.2-13.75,6.53-21.37,8,42.61,7.81,57.54-29.11,57.54-29.11C102.13,114.21,83.51,109.22,66,98.73Z"/><path class="cls-2" d="M126.39,91.62c-40,20.55-51.26-16.82-51.26-16.82C83.2,85.28,95.45,88.57,95.45,88.57,77.6,77.68,77.3,54.82,58.39,43.22c.24,0,10.29,1.82,14.27,9.08,0,0-6.87-29.82-44-22.46,14.3-6.38,33.23-6.51,48.54,15.54,0,0,.71-6.26-5.76-12.35,21.67,5.58,21.87,50.74,34.28,54.51a13.61,13.61,0,0,1-2-8.47S108.39,94.24,126.39,91.62Z"/><path class="cls-3" d="M72.66,52.3c-4-7.26-14-9-14.27-9.08h0c-5-3.1-11.42-5.39-19.8-6.44,2.51-2.07,10.2-1.18,10.2-1.18C24.58,23.39,7.33,49.44,7.33,49.44c.86-4.83,9.49-14.33,21.27-19.59h0C65.79,22.48,72.66,52.3,72.66,52.3Z"/><path class="cls-4" d="M56.85,79.91a76.07,76.07,0,0,1-21.26-10.5h0c-5.77-8.71-12.94-18.09-28.26-20,0,0,17.55-9.64,37.2,6.88A59.06,59.06,0,0,0,31,52.68C38.34,56.94,47.13,68.92,56.85,79.91Z"/><path class="cls-5" d="M126.39,91.62c-24.26,22.59-42.88,17.6-60.38,7.11,7.34,4.22,14,4.46,20.31,2.37C75.94,99.72,66,90.25,56.85,79.91c.39-5.78-3.5-13.79-8.08-22.18,0,0,10.25,3.19,18.26,15.52,0,0,3.72-12.94-8.64-30C77.3,54.82,77.6,77.68,95.45,88.57c0,0-12.25-3.29-20.32-13.77C75.13,74.8,86.38,112.17,126.39,91.62Z"/><path class="cls-6" d="M56.85,79.91c-9.72-11-18.51-23-25.89-27.23a59.06,59.06,0,0,1,13.57,3.64C24.88,39.8,7.33,49.44,7.33,49.44s17.25-26,41.46-13.84c0,0-7.69-.89-10.2,1.18,8.38,1,14.75,3.34,19.8,6.44h0c12.36,17.09,8.64,30,8.64,30C59,60.92,48.77,57.73,48.77,57.73,53.35,66.12,57.24,74.13,56.85,79.91Z"/><path class="cls-1" d="M72.09,119c8.34,1.46,14.7-.61,19.89-4.72-10.22,2.25-22.81-3.24-34.93-9.83a75.85,75.85,0,0,1-23.57-2.6c6.7,5,12.41,9.82,18.94,9.54-4.64,3-13.83,1-13.83,1,27,40,60.43,12,61,11.49C95,130,89,134.68,82.28,138.65c42.71-7.23,44.12-47,44.12-47C111.32,121.14,92.12,122.83,72.09,119Z"/><path class="cls-2" d="M126.4,91.62c-30.57,33-53.93,1.73-53.93,1.73,11.17,7.08,23.81,6,23.81,6C75.78,95.21,67.68,73.83,46,69.39c.23,0,10.28-1.8,16.51,3.66,0,0-16.66-25.68-49.08-6,11.25-10.89,29-17.49,50.93-2,0,0-1.47-6.13-9.64-9.63,22.27-2.17,37.91,40.2,50.86,39.49a13.63,13.63,0,0,1-4.78-7.27S110.38,100.23,126.4,91.62Z"/><path class="cls-3" d="M62.46,73.05c-6.23-5.46-16.28-3.7-16.51-3.66h0c-5.8-1.18-12.57-1.16-20.81.73,1.66-2.81,9.19-4.6,9.19-4.6C7.39,62.33.09,92.71.09,92.71-.75,87.87,4.11,76,13.38,67h0C45.8,47.37,62.46,73.05,62.46,73.05Z"/><path class="cls-4" d="M57.05,104.4a75.85,75.85,0,0,1-23.57-2.6h0C25.07,95.59,15.13,89.23.09,92.71c0,0,13.19-15.07,37.31-6.26a59.1,59.1,0,0,0-14,1.21C31.8,89.15,44.15,97.39,57.05,104.4Z"/><path class="cls-5" d="M126.4,91.62C111.32,121.14,92.12,122.83,72.09,119c8.34,1.46,14.7-.61,19.89-4.72-10.22,2.25-22.81-3.24-34.93-9.83-1.62-5.56-8-11.77-15.18-18.08,0,0,10.72-.51,22.46,8.34,0,0-.93-13.44-18.38-25.27,21.73,4.44,29.83,25.82,50.33,30,0,0-12.64,1.09-23.81-6C72.47,93.35,95.83,124.61,126.4,91.62Z"/><path class="cls-6" d="M57.05,104.4c-12.9-7-25.25-15.25-33.64-16.74a59.1,59.1,0,0,1,14-1.21C13.28,77.64.09,92.71.09,92.71s7.3-30.38,34.23-27.19c0,0-7.53,1.79-9.19,4.6,8.24-1.89,15-1.91,20.81-.73h0C63.4,81.22,64.33,94.66,64.33,94.66c-11.74-8.85-22.46-8.34-22.46-8.34C49,92.63,55.43,98.84,57.05,104.4Z"/><path class="cls-7" d="M189.22,109.21h-1.41l-.91-34.92a23.93,23.93,0,0,0-.51-4.93,4.28,4.28,0,0,0-1.63-2.6,8.72,8.72,0,0,0-3.55-1.26V62.86H197v2.6a7.9,7.9,0,0,0-3.22,1.24,4.3,4.3,0,0,0-1.53,2.56,25.07,25.07,0,0,0-.49,4.87L191,122.46H171.8L144.43,69.92H146l.86,41.11a24.53,24.53,0,0,0,.52,4.93,4.2,4.2,0,0,0,1.63,2.58,9.51,9.51,0,0,0,3.55,1.28v2.64H136.67v-2.6a7.73,7.73,0,0,0,3.28-1.24,4.33,4.33,0,0,0,1.51-2.55,24.19,24.19,0,0,0,.45-4.88l.66-39a10.64,10.64,0,0,0-.45-3.33,4.32,4.32,0,0,0-1.63-2.16,8.66,8.66,0,0,0-3.33-1.24v-2.6h28Z"/><path class="cls-7" d="M223,115a5,5,0,0,0,.87,3.3,6.82,6.82,0,0,0,3.67,1.57v2.6H199.78v-2.6c1.88-.38,3.09-.91,3.66-1.57a5.11,5.11,0,0,0,.84-3.3V90.47a7.44,7.44,0,0,0-.47-3.2,4.15,4.15,0,0,0-2.21-1.5l-1.82-.58V82.67L223,79.74ZM206.54,73.83a8.11,8.11,0,0,1,0-11.9,9.67,9.67,0,0,1,12.57,0,8.11,8.11,0,0,1,0,11.9,9.61,9.61,0,0,1-12.57,0Z"/><path class="cls-7" d="M253.94,88a12.13,12.13,0,0,1,5.35-6.13,18.79,18.79,0,0,1,9.8-2.33q6.57,0,10.55,3.38t4,10.44V115a7.21,7.21,0,0,0,.35,2.46,2.79,2.79,0,0,0,1.32,1.46,10.74,10.74,0,0,0,2.83,1v2.6H261.29v-2.6a5.44,5.44,0,0,0,2.91-1.4,5.16,5.16,0,0,0,.72-3.18v-22a6.86,6.86,0,0,0-1.46-4.77A5.37,5.37,0,0,0,259.31,87a6.38,6.38,0,0,0-3.26.81,4.55,4.55,0,0,0-2,2.08v25.43a5.53,5.53,0,0,0,.66,3.18,5.14,5.14,0,0,0,2.93,1.4v2.6H230.83v-2.6a6.7,6.7,0,0,0,3.65-1.57,5.11,5.11,0,0,0,.84-3.3V90.47a7.28,7.28,0,0,0-.47-3.2,4.15,4.15,0,0,0-2.21-1.5l-1.81-.58V82.67l23.11-2.93Z"/><path class="cls-7" d="M294.89,90.08a20.55,20.55,0,0,1,8.4-7.74,27,27,0,0,1,12.49-2.76,23.58,23.58,0,0,1,10.77,2.27,16.59,16.59,0,0,1,6.94,6.33,18.19,18.19,0,0,1,2.43,9.52c0,.63,0,1.26-.08,1.88s-.11,1.14-.17,1.58H306.49v-3l14.32-.21-.82.83c.05-.58.09-1.22.1-1.92s0-1.6,0-2.7a26.4,26.4,0,0,0-1-8.32q-1-2.86-3.28-2.87-2.64,0-4,3.14A23.27,23.27,0,0,0,310.49,95a29,29,0,0,0,2.07,11.75,14.35,14.35,0,0,0,13.78,9.14,13.69,13.69,0,0,0,5-.91,11.45,11.45,0,0,0,3.8-2.27l0,2.6a16.18,16.18,0,0,1-7.66,6,30.14,30.14,0,0,1-11.5,2.08,28.07,28.07,0,0,1-12.09-2.58,21.27,21.27,0,0,1-8.77-7.43,20.35,20.35,0,0,1-3.28-11.7A21.92,21.92,0,0,1,294.89,90.08Z"/><path class="cls-7" d="M343.89,85.15h-4.21V82.71l20.39-14.4h2.39V81.19l9-.79v4.75l-9-.79v25q0,3.8,1.43,5.47a4.87,4.87,0,0,0,3.9,1.67,6.75,6.75,0,0,0,2.31-.39,5.65,5.65,0,0,0,1.73-1v2.6a12.19,12.19,0,0,1-5.2,3.94,19.88,19.88,0,0,1-8.42,1.71,17.28,17.28,0,0,1-7.35-1.51,11.31,11.31,0,0,1-5.11-4.64,15.7,15.7,0,0,1-1.86-8.09Z"/><path class="cls-7" d="M377.94,120.61a9,9,0,0,1-3.34-7.27,9.84,9.84,0,0,1,1.8-5.76,14.61,14.61,0,0,1,6-4.54,47.84,47.84,0,0,1,11.15-3.28l11.1-2.19v2.81l-4.71,1.07a9.41,9.41,0,0,0-5.51,3.3,9.66,9.66,0,0,0-1.67,5.78,7.16,7.16,0,0,0,1.24,4.59,3.81,3.81,0,0,0,3.05,1.52,4.74,4.74,0,0,0,2.75-.78,3.91,3.91,0,0,0,1.55-2.15V93.94q0-5.49-2.46-7.88t-7.41-2.4a14.87,14.87,0,0,0-5.51,1,12.16,12.16,0,0,0-4.25,2.75,6.4,6.4,0,0,0-1.92,3.82h-2a8,8,0,0,1,2.08-5.41,6.38,6.38,0,0,1,4.89-2.27A7.14,7.14,0,0,1,390,85.71a7.26,7.26,0,0,1-.13,10.42,7.75,7.75,0,0,1-5.53,2.14,7.94,7.94,0,0,1-5.51-2,6.58,6.58,0,0,1-2.25-5.12A8.32,8.32,0,0,1,379,85.4a16.84,16.84,0,0,1,7.17-4.24,36.94,36.94,0,0,1,11.58-1.58q10.51,0,16.22,3.73t5.69,11.74v18.58a5,5,0,0,0,1,3.53,3.3,3.3,0,0,0,2.51,1.09,6.94,6.94,0,0,0,1.45-.12v2.48a13.37,13.37,0,0,1-4.38,1.83,24.48,24.48,0,0,1-6.11.73,18.75,18.75,0,0,1-5.59-.85,12.08,12.08,0,0,1-4.58-2.54,7.25,7.25,0,0,1-2.33-4.25,9.1,9.1,0,0,1-5,5.74,20.68,20.68,0,0,1-9.68,2.1C383.19,123.37,380.17,122.45,377.94,120.61Z"/><path class="cls-7" d="M450.55,115a5,5,0,0,0,.87,3.3,6.82,6.82,0,0,0,3.67,1.57v2.6H427.31v-2.6a6.74,6.74,0,0,0,3.66-1.57,5.11,5.11,0,0,0,.84-3.3V70.7a7.44,7.44,0,0,0-.47-3.2A4.25,4.25,0,0,0,429.13,66l-1.82-.61V62.86l23.24-2.93Z"/><path class="cls-7" d="M462,90.08a20.42,20.42,0,0,1,8.4-7.74,27,27,0,0,1,12.48-2.76,23.63,23.63,0,0,1,10.78,2.27,16.5,16.5,0,0,1,6.93,6.33A18.2,18.2,0,0,1,503,97.7c0,.63,0,1.26-.09,1.88s-.11,1.14-.16,1.58H473.55v-3l14.32-.21-.83.83c.06-.58.09-1.22.11-1.92s0-1.6,0-2.7a26.4,26.4,0,0,0-1-8.32c-.68-1.91-1.77-2.87-3.29-2.87q-2.64,0-4,3.14A23.5,23.5,0,0,0,477.55,95a29.15,29.15,0,0,0,2.06,11.75,14.38,14.38,0,0,0,13.79,9.14,13.6,13.6,0,0,0,5-.91,11.35,11.35,0,0,0,3.8-2.27l0,2.6a16.15,16.15,0,0,1-7.65,6,30.14,30.14,0,0,1-11.5,2.08A28,28,0,0,1,471,120.79a21.29,21.29,0,0,1-8.78-7.43,20.43,20.43,0,0,1-3.28-11.7A21.92,21.92,0,0,1,462,90.08Z"/><path class="cls-7" d="M510.08,86.63a16.63,16.63,0,0,1,7.67-5.18,37,37,0,0,1,12.47-1.83,45.46,45.46,0,0,1,8.28.68,23.8,23.8,0,0,1,5.63,1.59l.21,11.56h-2.56a17.36,17.36,0,0,0-4.25-7.64,9.62,9.62,0,0,0-7-2.81,8.1,8.1,0,0,0-4.91,1.24,3.92,3.92,0,0,0-.13,6.3,15.21,15.21,0,0,0,4.63,2.24l3.75,1.2q6.57,2.07,9.83,5.51a12.62,12.62,0,0,1,3.26,9,12.08,12.08,0,0,1-2.79,8,17.24,17.24,0,0,1-7.9,5.06,38,38,0,0,1-12.1,1.73,44.26,44.26,0,0,1-9-.93,27.93,27.93,0,0,1-7.16-2.33l-.41-12.51h2.56a19.19,19.19,0,0,0,2.8,6.28,15.21,15.21,0,0,0,4.71,4.45,11.45,11.45,0,0,0,6,1.66,8.66,8.66,0,0,0,5-1.24,3.83,3.83,0,0,0,1.76-3.26,4.13,4.13,0,0,0-1.43-3.22,12.42,12.42,0,0,0-4.52-2.27l-3.71-1.2a26.4,26.4,0,0,1-9.62-5.24,11.4,11.4,0,0,1-3.67-8.92A12.57,12.57,0,0,1,510.08,86.63Z"/></g></g></svg>