<svg xmlns="http://www.w3.org/2000/svg" viewBox="0 0 330.14 362.14"><defs><style>.cls-1{fill:#f04f2f;}.cls-2{fill:#fcbd26;}.cls-3{fill:#e5e9eb;}.cls-4{fill:#bfc3c9;}.cls-5{fill:#f78f32;}.cls-6{fill:#ced0d5;}</style></defs><g id="Layer_2" data-name="Layer 2"><g id="Layer_4" data-name="Layer 4"><path class="cls-1" d="M175.56,202.79c14.25,16.93,30.43,23.47,47.72,24-24.23-12.66-40.2-44.79-53.39-78.33a198.49,198.49,0,0,1-42.79-44.76c5.07,21.17,8.35,40.48,21.88,50.87-14.35-1.74-29.39-21.16-29.39-21.16C106.48,258.6,220.34,258.85,222.44,258.84c-19.67,4.52-39.56,3.74-59.56.48,97.6,57.24,167.23-20,167.23-20C250.38,273.05,209.12,244.18,175.56,202.79Z"/><path class="cls-2" d="M330.11,239.28C213.56,254,219.32,152.21,219.32,152.21c10.45,32.92,37.56,52,37.56,52-34.08-42.68-14.38-99.06-50.43-144.42.54.3,23.62,13.65,26.9,35,0,0,9.79-79.34-88-94.48C186.09-2.6,232.68,14,250.55,81.8c0,0,7.35-14.71-3.11-35.45,48.21,33.05,8.35,144.07,35.45,164.41a35.58,35.58,0,0,1,2.64-22.59S283.59,229.63,330.11,239.28Z"/><path class="cls-3" d="M233.35,94.79c-3.28-21.39-26.36-34.74-26.9-35h0c-9.61-12.1-23.2-23.43-42.85-33.49,8-2.84,26.1,6.23,26.1,6.23-48.53-51.6-114.12-3.07-114.12-3.07C82,18.31,111.66,2.7,145.28.31h0C243.14,15.45,233.35,94.79,233.35,94.79Z"/><path class="cls-4" d="M169.89,148.42a198.49,198.49,0,0,1-42.79-44.76v0c-6.38-26.53-15.6-56-51.52-74.23,0,0,51.67-8,85.15,50.12a154.24,154.24,0,0,0-30-21.07C145,75.51,155.85,112.75,169.89,148.42Z"/><path class="cls-5" d="M330.11,239.28c-79.73,33.77-121,4.9-154.55-36.49,14.25,16.93,30.43,23.47,47.72,24-24.23-12.66-40.2-44.79-53.39-78.33,6.11-13.83,3.73-37,0-61.64,0,0,22.3,17,30.94,54.39,0,0,20.7-28.45,5.64-81.42,36.05,45.36,16.35,101.74,50.43,144.42,0,0-27.11-19-37.56-52C219.32,152.21,213.56,254,330.11,239.28Z"/><path class="cls-6" d="M169.89,148.42c-14-35.67-24.91-72.91-39.21-90a154.24,154.24,0,0,1,30,21.07C127.24,21.41,75.57,29.41,75.57,29.41s65.59-48.53,114.12,3.07c0,0-18.07-9.07-26.1-6.23,19.65,10.06,33.24,21.39,42.85,33.49h0c15.06,53-5.64,81.42-5.64,81.42-8.64-37.41-30.94-54.39-30.94-54.39C173.62,111.44,176,134.59,169.89,148.42Z"/><path class="cls-1" d="M172.41,257.87c19.18,11,36.63,11.64,53,6.19-27.1-3.61-53.1-28.34-77-55.35A198.23,198.23,0,0,1,93,181.29c12,18.15,21.7,35.18,38,40.32-14.08,3.27-34.86-9.84-34.86-9.84,30.52,122.17,137.6,83.46,139.56,82.73-16.93,11-35.89,17.05-55.8,20.82,111.29,20.41,150.29-76,150.29-76C266.75,298.3,218.11,285.28,172.41,257.87Z"/><path class="cls-2" d="M330.12,239.3C225.62,293,196.23,195.37,196.23,195.37c21.09,27.36,53.07,36,53.07,36-46.62-28.45-47.4-88.17-96.78-118.47.61.11,26.86,4.76,37.26,23.73,0,0-17.94-77.9-115.06-58.66,37.34-16.69,86.8-17,126.78,40.58,0,0,1.88-16.35-15-32.25,56.6,14.56,57.11,132.52,89.54,142.37a35.57,35.57,0,0,1-5.25-22.13S283.11,246.13,330.12,239.3Z"/><path class="cls-3" d="M189.78,136.61c-10.4-19-36.65-23.62-37.26-23.73h0c-13.18-8.09-29.82-14.08-51.73-16.82,6.58-5.41,26.66-3.06,26.66-3.06C64.19,61.1,19.16,129.14,19.16,129.14,21.4,116.51,43.94,91.7,74.7,78h0C171.84,58.71,189.78,136.61,189.78,136.61Z"/><path class="cls-4" d="M148.49,208.71A198.23,198.23,0,0,1,93,181.29h0C77.89,158.52,59.16,134,19.16,129.14c0,0,45.81-25.19,97.15,18a153.93,153.93,0,0,0-35.43-9.52C100.14,148.72,123.1,180,148.49,208.71Z"/><path class="cls-5" d="M330.12,239.3c-63.37,59-112,46-157.71,18.57,19.18,11,36.63,11.64,53,6.19-27.1-3.61-53.1-28.34-77-55.35,1-15.08-9.14-36-21.1-57.92,0,0,26.76,8.33,47.68,40.54,0,0,9.72-33.82-22.55-78.45,49.38,30.3,50.16,90,96.78,118.47,0,0-32-8.62-53.07-36C196.23,195.37,225.62,293,330.12,239.3Z"/><path class="cls-6" d="M148.49,208.71c-25.39-28.71-48.35-60-67.61-71.12a153.93,153.93,0,0,1,35.43,9.52c-51.34-43.16-97.15-18-97.15-18s45-68,108.28-36.14c0,0-20.08-2.35-26.66,3.06,21.91,2.74,38.55,8.73,51.73,16.82h0c32.27,44.63,22.55,78.45,22.55,78.45-20.92-32.21-47.68-40.54-47.68-40.54C139.35,172.69,149.5,193.63,148.49,208.71Z"/><path class="cls-1" d="M188.29,310.69c21.8,3.81,38.4-1.59,52-12.33-26.7,5.88-59.59-8.47-91.25-25.68a198.61,198.61,0,0,1-61.55-6.78c17.49,13,32.42,25.64,49.46,24.9-12.11,7.89-36.12,2.68-36.12,2.68,70.46,104.36,157.84,31.36,159.44,30-12.16,16.1-27.9,28.29-45.32,38.65C326.47,343.25,330.14,239.3,330.14,239.3,290.77,316.41,240.61,320.82,188.29,310.69Z"/><path class="cls-2" d="M330.14,239.3c-79.84,86.17-140.84,4.51-140.84,4.51,29.17,18.5,62.17,15.66,62.17,15.66-53.54-10.79-74.69-66.64-131.46-78.22.61-.11,26.87-4.72,43.13,9.55,0,0-43.5-67.07-128.18-15.77,29.38-28.45,75.74-45.68,133-5.23,0,0-3.83-16-25.17-25.16,58.17-5.67,99,105,132.84,103.16a35.55,35.55,0,0,1-12.5-19S288.3,261.8,330.14,239.3Z"/><path class="cls-3" d="M163.14,190.8c-16.26-14.27-42.52-9.66-43.13-9.55h0c-15.15-3.09-32.84-3-54.36,1.89,4.33-7.34,24-12,24-12-70.34-8.34-89.39,71-89.39,71C-2,229.5,10.73,198.48,34.94,175h0C119.64,123.73,163.14,190.8,163.14,190.8Z"/><path class="cls-4" d="M149,272.68a198.61,198.61,0,0,1-61.55-6.78h0C65.49,249.66,39.51,233.05.25,242.14c0,0,34.44-39.34,97.44-16.34A153.76,153.76,0,0,0,61.14,229C83.05,232.84,115.32,254.38,149,272.68Z"/><path class="cls-5" d="M330.14,239.3c-39.37,77.11-89.53,81.52-141.85,71.39,21.8,3.81,38.4-1.59,52-12.33-26.7,5.88-59.59-8.47-91.25-25.68-4.21-14.52-20.91-30.73-39.64-47.21,0,0,28-1.33,58.67,21.78,0,0-2.43-35.1-48-66,56.77,11.58,77.92,67.43,131.46,78.22,0,0-33,2.84-62.17-15.66C189.3,243.81,250.3,325.47,330.14,239.3Z"/><path class="cls-6" d="M149,272.68c-33.68-18.3-65.95-39.84-87.86-43.71a153.76,153.76,0,0,1,36.55-3.17c-63-23-97.44,16.34-97.44,16.34s19.05-79.34,89.39-71c0,0-19.67,4.66-24,12,21.52-4.92,39.21-5,54.36-1.89h0c45.59,30.9,48,66,48,66-30.67-23.11-58.67-21.78-58.67-21.78C128.09,242,144.79,258.16,149,272.68Z"/></g></g></svg>