<svg xmlns="http://www.w3.org/2000/svg" viewBox="0 0 474.53 380.38"><defs><style>.cls-1{fill:#f04f2f;}.cls-2{fill:#fcbd26;}.cls-3{fill:#e5e9eb;}.cls-4{fill:#bfc3c9;}.cls-5{fill:#f78f32;}.cls-6{fill:#ced0d5;}.cls-7{fill:#fff;}</style></defs><g id="Layer_2" data-name="Layer 2"><g id="Layer_4" data-name="Layer 4"><path class="cls-1" d="M245.76,150.9c10.6,12.59,22.65,17.46,35.51,17.82-18-9.42-29.91-33.33-39.73-58.28A147.84,147.84,0,0,1,209.7,77.13c3.78,15.75,6.22,30.13,16.29,37.85-10.68-1.29-21.88-15.74-21.88-15.74-9.75,93.18,75,93.36,76.53,93.36-14.63,3.36-29.43,2.78-44.32.35,72.63,42.59,124.44-14.9,124.44-14.9C301.44,203.17,270.74,181.69,245.76,150.9Z"/><path class="cls-2" d="M360.76,178.05C274,189,278.32,113.26,278.32,113.26c7.78,24.49,27.95,38.66,27.95,38.66-25.36-31.76-10.7-73.71-37.52-107.46.4.23,17.57,10.16,20,26.07,0,0,7.28-59-65.52-70.3,30.35-2.16,65,10.19,78.31,60.64,0,0,5.47-10.95-2.31-26.38,35.87,24.59,6.21,107.2,26.38,122.34a26.41,26.41,0,0,1,2-16.81S326.15,170.86,360.76,178.05Z"/><path class="cls-3" d="M288.77,70.53c-2.45-15.91-19.62-25.84-20-26.07h0c-7.15-9-17.27-17.43-31.89-24.92,6-2.11,19.42,4.64,19.42,4.64-36.1-38.4-84.91-2.29-84.91-2.29C176.15,13.62,198.22,2,223.23.23h0C296.05,11.49,288.77,70.53,288.77,70.53Z"/><path class="cls-4" d="M241.54,110.44A147.84,147.84,0,0,1,209.7,77.13h0C205,57.37,198.09,35.48,171.36,21.88c0,0,38.45-5.95,63.36,37.3A114.11,114.11,0,0,0,212.37,43.5C223,56.19,231.1,83.9,241.54,110.44Z"/><path class="cls-5" d="M360.76,178.05c-59.32,25.12-90,3.64-115-27.15,10.6,12.59,22.65,17.46,35.51,17.82-18-9.42-29.91-33.33-39.73-58.28,4.55-10.29,2.78-27.52,0-45.87,0,0,16.59,12.63,23,40.47,0,0,15.41-21.16,4.2-60.58,26.82,33.75,12.16,75.7,37.52,107.46,0,0-20.17-14.17-27.95-38.66C278.32,113.26,274,189,360.76,178.05Z"/><path class="cls-6" d="M241.54,110.44C231.1,83.9,223,56.19,212.37,43.5a114.11,114.11,0,0,1,22.35,15.68c-24.91-43.25-63.36-37.3-63.36-37.3s48.81-36.11,84.91,2.29c0,0-13.44-6.75-19.42-4.64,14.62,7.49,24.74,15.91,31.89,24.92h0C280,83.88,264.55,105,264.55,105c-6.43-27.84-23-40.47-23-40.47C244.32,82.92,246.09,100.15,241.54,110.44Z"/><path class="cls-1" d="M243.42,191.88c14.27,8.21,27.25,8.66,39.47,4.6-20.17-2.68-39.51-21.09-57.27-41.18a147.69,147.69,0,0,1-41.31-20.4c8.93,13.5,16.14,26.18,28.24,30-10.47,2.44-25.93-7.31-25.93-7.31,22.7,90.9,102.38,62.09,103.84,61.56-12.6,8.16-26.71,12.68-41.52,15.49,82.81,15.18,111.83-56.57,111.83-56.57C313.62,222,277.42,212.28,243.42,191.88Z"/><path class="cls-2" d="M360.77,178.06C283,218,261.14,145.37,261.14,145.37c15.69,20.36,39.49,26.77,39.49,26.77-34.69-21.17-35.27-65.6-72-88.14.45.07,20,3.53,27.72,17.65,0,0-13.34-58-85.61-43.65,27.79-12.41,64.59-12.66,94.34,30.19,0,0,1.39-12.16-11.2-24C296,75,296.37,162.81,320.5,170.13a26.41,26.41,0,0,1-3.91-16.46S325.79,183.15,360.77,178.06Z"/><path class="cls-3" d="M256.34,101.65C248.61,87.53,229.07,84.07,228.62,84h0c-9.81-6-22.19-10.47-38.49-12.51C195,67.45,210,69.2,210,69.2c-47.06-23.74-80.58,26.89-80.58,26.89,1.68-9.4,18.44-27.86,41.34-38.09h0C243,43.68,256.34,101.65,256.34,101.65Z"/><path class="cls-4" d="M225.62,155.3a147.69,147.69,0,0,1-41.31-20.4v0C173.09,118,159.15,99.73,129.38,96.09c0,0,34.1-18.74,72.29,13.37a114.29,114.29,0,0,0-26.36-7.08C189.65,110.66,206.73,133.93,225.62,155.3Z"/><path class="cls-5" d="M360.77,178.06c-47.15,43.9-83.35,34.22-117.35,13.82,14.27,8.21,27.25,8.66,39.47,4.6-20.17-2.68-39.51-21.09-57.27-41.18.75-11.22-6.8-26.81-15.7-43.1,0,0,19.91,6.2,35.48,30.16,0,0,7.23-25.16-16.78-58.36,36.74,22.54,37.32,67,72,88.14,0,0-23.8-6.41-39.49-26.77C261.14,145.37,283,218,360.77,178.06Z"/><path class="cls-6" d="M225.62,155.3c-18.89-21.37-36-44.64-50.31-52.92a114.29,114.29,0,0,1,26.36,7.08c-38.19-32.11-72.29-13.37-72.29-13.37S162.9,45.46,210,69.2c0,0-14.94-1.75-19.84,2.28,16.3,2,28.68,6.5,38.49,12.51h0c24,33.2,16.78,58.36,16.78,58.36-15.57-24-35.48-30.16-35.48-30.16C218.82,128.49,226.37,144.08,225.62,155.3Z"/><path class="cls-1" d="M255.23,231.18C271.45,234,283.81,230,293.9,222c-19.87,4.38-44.34-6.3-67.9-19.1a148,148,0,0,1-45.8-5.05c13,9.64,24.12,19.08,36.8,18.53-9,5.87-26.87,2-26.87,2C242.55,296,307.57,241.71,308.76,240.7c-9.05,12-20.76,21.05-33.72,28.76,83-14,85.74-91.4,85.74-91.4C331.49,235.44,294.16,238.72,255.23,231.18Z"/><path class="cls-2" d="M360.78,178.06c-59.41,64.12-104.8,3.35-104.8,3.35,21.71,13.77,46.26,11.66,46.26,11.66-39.83-8-55.57-49.59-97.81-58.21.45-.08,20-3.51,32.09,7.11,0,0-32.37-49.91-95.38-11.73,21.86-21.17,56.36-34,99-3.9,0,0-2.85-11.9-18.73-18.72,43.29-4.22,73.67,78.13,98.85,76.76a26.41,26.41,0,0,1-9.3-14.13S329.65,194.8,360.78,178.06Z"/><path class="cls-3" d="M236.52,142c-12.1-10.62-31.64-7.19-32.09-7.11h0c-11.27-2.29-24.44-2.25-40.45,1.41,3.22-5.46,17.86-8.93,17.86-8.93-52.34-6.2-66.52,52.83-66.52,52.83-1.64-9.4,7.8-32.48,25.82-49.93h0C204.15,92.06,236.52,142,236.52,142Z"/><path class="cls-4" d="M226,202.9a148,148,0,0,1-45.8-5.05h0c-16.32-12.07-35.65-24.43-64.87-17.67,0,0,25.63-29.27,72.51-12.16a114.69,114.69,0,0,0-27.2,2.36C176.93,173.25,200.94,189.28,226,202.9Z"/><path class="cls-5" d="M360.78,178.06c-29.29,57.38-66.62,60.66-105.55,53.12C271.45,234,283.81,230,293.9,222c-19.87,4.38-44.34-6.3-67.9-19.1-3.14-10.81-15.56-22.87-29.5-35.13,0,0,20.84-1,43.66,16.2,0,0-1.81-26.11-35.73-49.11,42.24,8.62,58,50.18,97.81,58.21,0,0-24.55,2.11-46.26-11.66C256,181.41,301.37,242.18,360.78,178.06Z"/><path class="cls-6" d="M226,202.9c-25.06-13.62-49.07-29.65-65.38-32.53a114.69,114.69,0,0,1,27.2-2.36c-46.88-17.11-72.51,12.16-72.51,12.16s14.18-59,66.52-52.83c0,0-14.64,3.47-17.86,8.93,16-3.66,29.18-3.7,40.45-1.41h0c33.92,23,35.73,49.11,35.73,49.11-22.82-17.19-43.66-16.2-43.66-16.2C210.44,180,222.86,192.09,226,202.9Z"/><path class="cls-7" d="M60.78,364H59.15l-1-40.39a28.18,28.18,0,0,0-.59-5.7,5,5,0,0,0-1.89-3,10.32,10.32,0,0,0-4.1-1.46v-3.05H69.8v3a9.12,9.12,0,0,0-3.72,1.43,4.92,4.92,0,0,0-1.77,3,28.56,28.56,0,0,0-.57,5.63l-1,55.91H40.63L9,318.55h1.76l1,47.56a28.18,28.18,0,0,0,.59,5.7,4.85,4.85,0,0,0,1.89,3,11,11,0,0,0,4.1,1.48v3.06H0v-3a9.06,9.06,0,0,0,3.8-1.43,5,5,0,0,0,1.74-3,27.07,27.07,0,0,0,.52-5.63l.77-45.12a12.17,12.17,0,0,0-.53-3.85,4.92,4.92,0,0,0-1.88-2.5A9.85,9.85,0,0,0,.57,313.4v-3H33Z"/><path class="cls-7" d="M99.88,370.69a5.79,5.79,0,0,0,1,3.82c.67.76,2.09,1.37,4.25,1.81v3H73v-3c2.16-.44,3.57-1.05,4.23-1.81a5.92,5.92,0,0,0,1-3.82V342.33a8.55,8.55,0,0,0-.54-3.7,4.81,4.81,0,0,0-2.56-1.74l-2.1-.67V333.3l26.88-3.38ZM80.82,323.07a9.37,9.37,0,0,1,0-13.76,11.2,11.2,0,0,1,14.54,0,9.39,9.39,0,0,1,0,13.76,11.11,11.11,0,0,1-14.54,0Z"/><path class="cls-7" d="M135.64,339.51a14,14,0,0,1,6.18-7.09,21.78,21.78,0,0,1,11.34-2.7q7.59,0,12.2,3.92T170,345.72v25a8.24,8.24,0,0,0,.4,2.84,3.18,3.18,0,0,0,1.53,1.69,12.2,12.2,0,0,0,3.27,1.1v3h-31v-3a6.29,6.29,0,0,0,3.36-1.62,5.91,5.91,0,0,0,.84-3.68v-25.4a7.92,7.92,0,0,0-1.69-5.51,6.19,6.19,0,0,0-4.8-1.84,7.45,7.45,0,0,0-3.77.93,5.32,5.32,0,0,0-2.3,2.41V371a6.36,6.36,0,0,0,.77,3.68,6,6,0,0,0,3.39,1.62v3h-31v-3c2.17-.44,3.58-1.05,4.23-1.81a5.92,5.92,0,0,0,1-3.82V342.33a8.51,8.51,0,0,0-.55-3.7,4.81,4.81,0,0,0-2.56-1.74l-2.1-.67V333.3l26.74-3.38Z"/><path class="cls-7" d="M183,341.88a23.86,23.86,0,0,1,9.72-9,31.22,31.22,0,0,1,14.44-3.2,27.38,27.38,0,0,1,12.46,2.63,19.14,19.14,0,0,1,8,7.33,21,21,0,0,1,2.82,11c0,.74,0,1.46-.1,2.18s-.12,1.33-.19,1.83H196.42v-3.48L213,351l-1,.95c.06-.66.1-1.4.12-2.21s0-1.86,0-3.13A30.4,30.4,0,0,0,211,337c-.77-2.21-2-3.32-3.79-3.32-2,0-3.57,1.21-4.61,3.63s-1.55,5.85-1.55,10.31q0,8.22,2.39,13.58a16.59,16.59,0,0,0,15.94,10.58,15.9,15.9,0,0,0,5.78-1.05,13.2,13.2,0,0,0,4.39-2.63l0,3a18.72,18.72,0,0,1-8.86,6.9,34.78,34.78,0,0,1-13.29,2.41,32.44,32.44,0,0,1-14-3,24.69,24.69,0,0,1-10.15-8.6,23.57,23.57,0,0,1-3.79-13.53A25.33,25.33,0,0,1,183,341.88Z"/><path class="cls-7" d="M239.67,336.17h-4.86v-2.82l23.58-16.66h2.77v14.9l10.41-.91v5.49l-10.41-.91v28.89c0,2.93.55,5,1.65,6.32a5.6,5.6,0,0,0,4.51,1.94A7.57,7.57,0,0,0,270,372a6.18,6.18,0,0,0,2-1.12v3a14.09,14.09,0,0,1-6,4.56,23,23,0,0,1-9.74,2,20.09,20.09,0,0,1-8.5-1.74,13.2,13.2,0,0,1-5.92-5.37,18.21,18.21,0,0,1-2.15-9.36Z"/><path class="cls-7" d="M279.06,377.18a10.38,10.38,0,0,1-3.86-8.4,11.42,11.42,0,0,1,2.07-6.66,17,17,0,0,1,6.9-5.25,55.26,55.26,0,0,1,12.89-3.8l12.85-2.53v3.25L304.46,355a10.85,10.85,0,0,0-6.37,3.82,11.09,11.09,0,0,0-1.93,6.68,8.26,8.26,0,0,0,1.43,5.3,4.37,4.37,0,0,0,3.53,1.77,5.44,5.44,0,0,0,3.18-.91,4.53,4.53,0,0,0,1.79-2.48V346.34q0-6.34-2.84-9.12c-1.9-1.85-4.75-2.77-8.57-2.77a17.15,17.15,0,0,0-6.38,1.19,14,14,0,0,0-4.91,3.18,7.54,7.54,0,0,0-2.23,4.42h-2.29a9.25,9.25,0,0,1,2.41-6.26,7.37,7.37,0,0,1,5.66-2.62,8.23,8.23,0,0,1,6,2.45,8.4,8.4,0,0,1-.15,12.06,9,9,0,0,1-6.39,2.48A9.2,9.2,0,0,1,280,349a7.63,7.63,0,0,1-2.6-5.92,9.6,9.6,0,0,1,2.82-6.63,19.52,19.52,0,0,1,8.28-4.9,42.56,42.56,0,0,1,13.39-1.84q12.18,0,18.77,4.33t6.59,13.58v21.48a5.83,5.83,0,0,0,1.19,4.09,3.85,3.85,0,0,0,2.91,1.26,8.11,8.11,0,0,0,1.67-.14v2.86a15.44,15.44,0,0,1-5.06,2.13,28.6,28.6,0,0,1-7.06.83,21.27,21.27,0,0,1-6.47-1,14,14,0,0,1-5.3-2.93,8.43,8.43,0,0,1-2.7-4.92q-1.1,4.2-5.75,6.64a24,24,0,0,1-11.2,2.43Q282.94,380.38,279.06,377.18Z"/><path class="cls-7" d="M363.05,370.69a5.79,5.79,0,0,0,1,3.82c.67.76,2.08,1.37,4.25,1.81v3H336.17v-3c2.16-.44,3.57-1.05,4.22-1.81a5.92,5.92,0,0,0,1-3.82V319.46a8.36,8.36,0,0,0-.55-3.7,4.82,4.82,0,0,0-2.55-1.74l-2.1-.72v-2.91L363.05,307Z"/><path class="cls-7" d="M376.22,341.88a23.86,23.86,0,0,1,9.72-9,31.22,31.22,0,0,1,14.44-3.2,27.38,27.38,0,0,1,12.46,2.63,19.14,19.14,0,0,1,8,7.33,21,21,0,0,1,2.82,11c0,.74,0,1.46-.1,2.18s-.12,1.33-.19,1.83H389.64v-3.48l16.57-.24-1,.95c.06-.66.1-1.4.12-2.21s0-1.86,0-3.13a30.75,30.75,0,0,0-1.16-9.62c-.79-2.21-2.05-3.32-3.8-3.32-2,0-3.57,1.21-4.61,3.63s-1.55,5.85-1.55,10.31q0,8.22,2.39,13.58a16.59,16.59,0,0,0,15.94,10.58,15.9,15.9,0,0,0,5.78-1.05,13.3,13.3,0,0,0,4.39-2.63l.05,3A18.68,18.68,0,0,1,414,378a34.78,34.78,0,0,1-13.29,2.41,32.44,32.44,0,0,1-14-3,24.63,24.63,0,0,1-10.15-8.6,23.57,23.57,0,0,1-3.79-13.53A25.33,25.33,0,0,1,376.22,341.88Z"/><path class="cls-7" d="M431.89,337.89a19.12,19.12,0,0,1,8.88-6,42.59,42.59,0,0,1,14.42-2.13,52.44,52.44,0,0,1,9.57.79,28.4,28.4,0,0,1,6.52,1.84l.24,13.37h-3a19.89,19.89,0,0,0-4.92-8.84,11.11,11.11,0,0,0-8.11-3.24,9.4,9.4,0,0,0-5.69,1.43,4.54,4.54,0,0,0-.14,7.28,17.6,17.6,0,0,0,5.35,2.6l4.34,1.39q7.59,2.39,11.37,6.37a14.59,14.59,0,0,1,3.77,10.43,14,14,0,0,1-3.22,9.29,20,20,0,0,1-9.15,5.85,43.89,43.89,0,0,1-14,2,51.64,51.64,0,0,1-10.43-1.07,32.63,32.63,0,0,1-8.28-2.7L429,362.09h3a21.92,21.92,0,0,0,3.25,7.26,17.34,17.34,0,0,0,5.44,5.16,13.39,13.39,0,0,0,7,1.91,10,10,0,0,0,5.8-1.43,4.44,4.44,0,0,0,2-3.78,4.8,4.8,0,0,0-1.65-3.72,14.54,14.54,0,0,0-5.22-2.63l-4.3-1.38a30.89,30.89,0,0,1-11.13-6.06,13.2,13.2,0,0,1-4.24-10.32A14.59,14.59,0,0,1,431.89,337.89Z"/></g></g></svg>